:SAMPLES-PER-SECOND 30
:FRAME-RANGE 1-2045
:FULLY-SPECIFIED
:DEGREES
1151
root  20.5661 32.6644 26.503 -9.70654 33.6487 -4.13632
RightUpLeg  -36.2894 13.3519 -21.4705
RightLeg  28.7389 5.07716 2.78828
RightFoot  -13.9194 0.475558 25.0015
RightToes  -5.28216e-011 1.2921e-014 -6.02303e-014
Spine  18.7943 -1.1617 5.09347
Spine1  2.26447 1.32098 -5.69178
HEad  -4.77157 17.5193 -17.5429
LeftShoulder1  3.92894 -10.7839 -21.7968
LeftArm  -10.1876 -25.9207 -53.9076
LeftForeArm  -16.9818 5.77128 -7.82496
LeftHand  0.444513 -0.800676 -8.29141
RightShoulder  2.43796 8.35473 14.1385
RightArm  -25.2442 56.8351 67.7028
RightForeArm  40.6636 -4.14354 -8.31508
RightHand  -0.0170553 -5.87892 -2.87902
LeftUpLeg  -32.8288 -6.61268 -2.78794
LeftLeg  69.5627 -0.207796 0.273343
LeftFoot  -25.5034 0.895158 5.9636
LeftToes  9.43379e-011 5.24309e-011 -4.66411e-011
1152
root  20.817 32.698 28.3011 -10.0588 37.8658 -4.85022
RightUpLeg  -33.4594 12.9216 -21.4882
RightLeg  27.2595 3.61426 1.79959
RightFoot  -10.2949 -0.361845 31.1072
RightToes  -5.28216e-011 1.2921e-014 -6.02303e-014
Spine  18.2739 -0.993422 6.55878
Spine1  2.21975 1.43191 -5.38157
HEad  -2.79108 17.6511 -17.6589
LeftShoulder1  3.96539 -10.6978 -22.2565
LeftArm  -11.6036 -26.0016 -55.529
LeftForeArm  -16.8436 6.69953 -7.11376
LeftHand  0.412348 -0.511976 -8.09997
RightShoulder  2.49481 8.42631 14.5326
RightArm  -24.765 57.3233 66.9527
RightForeArm  41.6265 -4.18724 -7.95884
RightHand  -0.00604839 -6.40189 -2.94655
LeftUpLeg  -32.9424 -6.59863 -0.838727
LeftLeg  74.1665 -1.81413 -6.17415
LeftFoot  -23.7237 0.655802 4.72677
LeftToes  9.43379e-011 5.24309e-011 -4.66411e-011
1153
root  20.8861 32.5056 30.0207 -11.0568 42.5783 -5.69756
RightUpLeg  -33.933 7.80544 -19.7084
RightLeg  35.9461 6.35687 4.68256
RightFoot  -7.17075 -1.25163 32.1899
RightToes  -5.28216e-011 1.2921e-014 -6.02303e-014
Spine  19.0766 -0.967663 7.44451
Spine1  2.00848 1.56857 -5.60023
HEad  -1.85118 17.3631 -16.8002
LeftShoulder1  3.76335 -10.2162 -21.742
LeftArm  -13.6543 -24.9499 -57.1097
LeftForeArm  -16.5993 6.52777 -6.04765
LeftHand  0.39804 -0.410171 -7.96835
RightShoulder  2.63556 9.02475 14.6571
RightArm  -23.5283 59.0206 66.9725
RightForeArm  42.1718 -4.19426 -7.85432
RightHand  -0.0089225 -6.51592 -2.46665
LeftUpLeg  -36.7739 -6.83766 3.49752
LeftLeg  81.7979 -2.47302 -19.4219
LeftFoot  -14.6117 0.0308472 -1.98816
LeftToes  9.43379e-011 5.24309e-011 -4.66411e-011
1154
root  21.1397 32.343 31.7095 -14.1534 46.633 -8.42122
RightUpLeg  -32.8416 0.721711 -16.3802
RightLeg  43.6941 7.0779 6.90011
RightFoot  -7.34581 -1.07566 28.8013
RightToes  -5.28216e-011 1.2921e-014 -6.02303e-014
Spine  19.4575 -0.865205 9.59989
Spine1  2.8531 1.90475 -5.14676
HEad  -1.29064 16.703 -15.422
LeftShoulder1  3.74144 -10.1724 -21.6653
LeftArm  -13.6923 -22.9458 -56.6804
LeftForeArm  -17.6488 6.42679 -6.04114
LeftHand  0.465745 -1.01498 -8.37429
RightShoulder  2.78836 9.66013 14.8046
RightArm  -21.9815 59.8107 68.4654
RightForeArm  42.7214 -4.21256 -7.68487
RightHand  -6.2432e-005 -6.7683 -2.83281
LeftUpLeg  -39.9127 -7.91765 10.6207
LeftLeg  84.847 -2.34842 -33.4117
LeftFoot  -13.4971 -0.206009 -15.1524
LeftToes  9.43379e-011 5.24309e-011 -4.66411e-011
1155
root  21.4051 32.3055 33.5446 -16.5965 50.8991 -9.75011
RightUpLeg  -30.706 -5.90108 -14.9127
RightLeg  50.5463 6.46319 8.00786
RightFoot  -11.0526 -0.136512 23.752
RightToes  -5.28216e-011 1.2921e-014 -6.02303e-014
Spine  19.6938 -0.0924743 9.26305
Spine1  2.96943 2.69787 -5.48804
HEad  1.94224 15.924 -11.9669
LeftShoulder1  3.39001 -9.03985 -21.3493
LeftArm  -14.1515 -20.2937 -56.4797
LeftForeArm  -17.5151 5.31891 -6.05748
LeftHand  0.499932 -1.45908 -8.36324
RightShoulder  2.87785 9.64461 15.5918
RightArm  -20.2516 58.9249 71.2923
RightForeArm  43.8196 -4.24942 -7.34058
RightHand  0.0145873 -6.96293 -3.56932
LeftUpLeg  -41.6936 -8.16807 15.428
LeftLeg  82.9712 -3.17828 -29.9864
LeftFoot  -15.7267 -0.470362 -14.6675
LeftToes  9.43379e-011 5.24309e-011 -4.66411e-011
1156
root  21.7334 32.3196 35.382 -18.3551 54.4155 -11.1963
RightUpLeg  -28.6647 -10.0488 -13.7611
RightLeg  55.5039 5.57891 8.26813
RightFoot  -15.3721 0.612175 20.1893
RightToes  -5.28216e-011 1.2921e-014 -6.02303e-014
Spine  18.188 1.03355 8.7577
Spine1  4.31885 4.07607 -7.35356
HEad  4.20758 14.8984 -8.88994
LeftShoulder1  3.04144 -7.9555 -20.8693
LeftArm  -16.3286 -17.0203 -55.3773
LeftForeArm  -16.383 3.11661 -5.48737
LeftHand  0.517651 -1.78602 -8.23577
RightShoulder  2.97125 9.89799 15.9007
RightArm  -17.7231 57.9902 75.0137
RightForeArm  43.6134 -4.32447 -6.94578
RightHand  0.0030312 -6.50297 -3.60124
LeftUpLeg  -43.0231 -6.75921 19.1331
LeftLeg  76.2174 -3.75442 -16.2057
LeftFoot  -15.9437 -0.397972 -12.2353
LeftToes  9.43379e-011 5.24309e-011 -4.66411e-011
1157
root  22.1686 32.3309 37.1116 -21.0504 57.7792 -13.3983
RightUpLeg  -25.5231 -13.41 -12.7499
RightLeg  59.1042 5.14219 8.75958
RightFoot  -20.1919 1.23394 17.5986
RightToes  -5.28216e-011 1.2921e-014 -6.02303e-014
Spine  17.6931 2.14605 8.21417
Spine1  5.2808 5.44752 -8.91123
HEad  5.10614 13.8958 -7.0425
LeftShoulder1  2.77259 -7.21388 -20.1718
LeftArm  -17.9589 -13.5882 -53.3303
LeftForeArm  -15.7003 0.127407 -5.2854
LeftHand  0.551263 -1.91407 -8.61208
RightShoulder  2.96786 10.2401 15.2512
RightArm  -14.4176 57.2038 79.398
RightForeArm  43.2469 -4.44523 -6.3132
RightHand  -0.023595 -5.57384 -2.68031
LeftUpLeg  -43.1207 -6.44879 22.0392
LeftLeg  66.7642 -2.73246 -6.24236
LeftFoot  -14.9176 -0.208499 -9.51857
LeftToes  9.43379e-011 5.24309e-011 -4.66411e-011
